<svg xmlns="http://www.w3.org/2000/svg" viewBox="0 0 32 32">
  <rect x="2" y="8" width="30" height="18" rx="2" fill="#1f2937" stroke="#374151" stroke-width="1" />
  <rect x="5" y="11" width="4" height="3" rx="0.5" fill="#6b7280" />
  <rect x="10" y="11" width="4" height="3" rx="0.5" fill="#6b7280" />
  <rect x="15" y="11" width="4" height="3" rx="0.5" fill="#0ea5e9" />
  <rect x="20" y="11" width="4" height="3" rx="0.5" fill="#6b7280" />
  <rect x="25" y="11" width="4" height="3" rx="0.5" fill="#6b7280" />
  <rect x="5" y="15" width="4" height="3" rx="0.5" fill="#6b7280" />
  <rect x="10" y="15" width="4" height="3" rx="0.5" fill="#6b7280" />
  <rect x="15" y="15" width="4" height="3" rx="0.5" fill="#6b7280" />
  <rect x="20" y="15" width="4" height="3" rx="0.5" fill="#6b7280" />
  <rect x="25" y="15" width="4" height="3" rx="0.5" fill="#6b7280" />
  <rect x="7" y="20" width="18" height="3" rx="0.5" fill="#6b7280" />
</svg>